<svg xmlns="http://www.w3.org/2000/svg" viewBox="0 0 70.89 112.53"><defs><style>.cls-1{fill:#1d1d1b;}</style></defs><title>Fichier 1</title><g id="Calque_2" data-name="Calque 2"><g id="Calque_1-2" data-name="Calque 1"><path class="cls-1" d="M17,30.7v12a75.26,75.26,0,0,0,.31,8.79A4.45,4.45,0,0,0,19,54.55c.93.67,2.66,1,5.21,1h1.89v1.93H0V55.56H1.51c2.44,0,4.12-.31,5.06-.92a4.26,4.26,0,0,0,1.79-2.88,65,65,0,0,0,.37-9.09V14.74A61.88,61.88,0,0,0,8.36,6,3.83,3.83,0,0,0,6.68,3.23q-1.3-.75-5.63-.75H0V.55L7.14.29Q15.7,0,20.49,0q8.82,0,13.59,1.39A15.9,15.9,0,0,1,41.89,6.3a13.13,13.13,0,0,1,3,8.9,16.1,16.1,0,0,1-2.07,8.23,13.38,13.38,0,0,1-6,5.42Q33,30.69,23.22,30.7Zm0-2.1H21a26.21,26.21,0,0,0,7.94-1,9.55,9.55,0,0,0,5-4.13,14.16,14.16,0,0,0,2-7.77q0-7.07-3.46-10.36T21.33,2.06A40,40,0,0,0,17,2.23Z"/><path class="cls-1" d="M51.79,81.87q9.69.72,14.4,4.83A13.13,13.13,0,0,1,70.89,97a14.12,14.12,0,0,1-3.19,9.26,14.76,14.76,0,0,1-8.17,5.08,59,59,0,0,1-13.33,1.2H27.84l-4-1.88L26,110.6c2.44,0,4.12-.31,5.06-.93a4.18,4.18,0,0,0,1.79-2.87,64.69,64.69,0,0,0,.38-9.1V70a61.13,61.13,0,0,0-.4-8.95,3.9,3.9,0,0,0-1.68-2.77q-1.29-.75-5.61-.75H24.49V55.58l9.36-.25L44.52,55q23.35,0,23.35,13.43a11.05,11.05,0,0,1-4,8.91Q59.84,80.7,51.79,81.87Zm-10.29-.8c.7,0,1.28.05,1.76.05q9.08,0,12.39-2.86T59,69a14.83,14.83,0,0,0-1.31-6.89,8.8,8.8,0,0,0-3.9-3.75c-1.74-.89-4.7-1.33-8.9-1.33-1.1,0-2.22.05-3.36.13Zm0,2.06V95.81c0,5.41.09,8.84.29,10.29a5.17,5.17,0,0,0,1.58,3.32c.85.76,2.54,1.13,5.06,1.13q6.7,0,10.07-3.44t3.36-10.33q0-7.05-3.8-10.39T44.69,83.05C43.68,83.05,42.62,83.08,41.5,83.13Z"/><line class="cls-1" x1="36.03" y1="68.93" y2="68.93"/><polygon class="cls-1" points="36.03 70.43 0 68.93 36.03 67.43 36.03 70.43"/><line class="cls-1" x1="36.03" y1="79.58" y2="79.58"/><polygon class="cls-1" points="36.03 81.08 0 79.58 36.03 78.08 36.03 81.08"/><line class="cls-1" x1="36.03" y1="90.23" y2="90.23"/><polygon class="cls-1" points="36.03 91.73 0 90.23 36.03 88.73 36.03 91.73"/><line class="cls-1" x1="36.03" y1="100.88" y2="100.88"/><polygon class="cls-1" points="36.03 102.38 0 100.88 36.03 99.38 36.03 102.38"/><line class="cls-1" x1="27.85" y1="111.52" y2="111.52"/><polygon class="cls-1" points="27.85 112.52 0 111.52 27.85 110.52 27.85 112.52"/></g></g></svg>